<?xml version="1.0" encoding="iso-8859-1"?>
<!-- Generator: Adobe Illustrator 19.0.0, SVG Export Plug-In . SVG Version: 6.00 Build 0)  -->
<svg version="1.1" id="Capa_1" xmlns="http://www.w3.org/2000/svg" xmlns:xlink="http://www.w3.org/1999/xlink" x="0px" y="0px"
	 viewBox="0 0 512 512" style="enable-background:new 0 0 512 512;" xml:space="preserve">
<path style="fill:#ECE9EE;" d="M198.291,104.46c74.006-51.235,142.319,5.693,199.247,62.62s125.241,136.627,102.469,193.554
	c-22.771,56.928-85.392,119.548-165.09,85.392C259.454,413.683,16.532,230.294,198.291,104.46z"/>
<path style="fill:#D9D3DE;" d="M358.868,422.075c-68.557-29.382-275.314-183.432-176.295-305.733
	C31.458,241.537,261.798,414.688,334.918,446.025c58.24,24.96,107.357-1.762,138.471-40.174
	C443.383,429.802,403.847,441.351,358.868,422.075z"/>
<polygon style="fill:#F6B6A4;" points="75.86,460.954 7.547,392.641 332.035,68.154 417.426,51.076 400.348,136.467 "/>
<polygon style="fill:#D36977;" points="400.348,136.467 371.884,130.774 366.191,102.311 337.728,96.618 332.035,68.154 
	7.547,392.641 75.86,460.954 "/>
<path style="fill:#C84455;" d="M371.884,130.774l-0.406-2.03L245.937,254.286L194.7,205.488l-78.98,78.98
	c1.874,0.272,3.77,0.416,5.673,0.416c3.161,0,6.326-0.375,9.409-1.115l51.904-12.457c5.845-1.403,11.11,3.862,9.707,9.707
	l-8.46,35.249L57.565,442.658l18.296,18.295l188.818-188.818l135.669-135.669L371.884,130.774z"/>
<path style="fill:#C6CE50;" d="M228.144,373.625l68.313-284.638c2.075-8.648-3.254-17.34-11.899-19.414
	c-8.648-2.075-17.339,3.253-19.414,11.899L196.83,366.109c-1.357,5.654,0.45,11.325,4.28,15.156c2.029,2.029,4.625,3.54,7.619,4.259
	C217.377,387.599,226.068,382.271,228.144,373.625z"/>
<path style="fill:#DDE296;" d="M117.65,228.971l284.638-68.313c8.648-2.075,17.34,3.254,19.414,11.899
	c2.075,8.648-3.253,17.339-11.899,19.414l-284.638,68.313c-5.654,1.357-11.325-0.45-15.156-4.28
	c-2.029-2.029-3.54-4.625-4.259-7.619C103.676,239.738,109.003,231.046,117.65,228.971z"/>
<path d="M480.112,252.194c-2.312-3.47-6.997-4.408-10.466-2.096c-3.469,2.311-4.408,6.997-2.097,10.466
	c26.684,40.055,35.246,72.78,25.452,97.267c-11.882,29.704-38.197,67.087-76.423,82.921c-25.24,10.455-51.713,9.895-78.685-1.664
	c-23.079-9.891-62.984-34.711-101.301-68.316l19.028-79.285c0.568-0.325,1.106-0.723,1.59-1.207l70.108-70.109
	c0.255-0.255,0.48-0.527,0.69-0.807l83.557-20.053c1.721-0.413,3.357-1.024,4.91-1.784c10.895,11.706,20.45,22.654,29.084,33.334
	c2.763,3.42,8.009,3.71,11.15,0.645c2.749-2.682,3-7.153,0.588-10.136c-8.942-11.062-18.83-22.383-30.102-34.479
	c2.499-4.977,3.162-10.618,1.848-16.094c-1.473-6.143-5.251-11.344-10.637-14.645c-5.386-3.302-11.737-4.308-17.878-2.833
	l-8.364,2.008l13.522-13.522c1.043-1.043,1.774-2.411,2.064-3.857l17.079-85.392c1.038-5.192-3.69-9.917-8.881-8.881l-85.394,17.079
	c-1.467,0.294-2.834,1.041-3.891,2.097l-22.209,22.209c-0.023-4.266-1.207-8.458-3.493-12.189
	c-3.301-5.387-8.502-9.164-14.643-10.638c-11.726-2.818-23.553,3.689-27.668,14.721c-22.238-0.165-43.974,6.982-64.656,21.301
	c-48.964,33.898-72.153,74.65-69.025,121.197l-9.081,2.18c-6.143,1.474-11.344,5.252-14.645,10.638
	c-5.644,9.207-4.213,21.431,3.429,29.071c4.489,4.49,10.412,6.916,16.558,6.943L2.211,387.304c-2.948,2.948-2.948,7.727,0,10.673
	l68.313,68.313c2.907,2.906,7.768,2.906,10.674,0l110.299-110.299l-2.005,8.355c-2.612,10.883,2.977,22.387,13.174,27.035
	c3.072,1.401,6.445,2.136,9.822,2.136c6.92,0,13.42-3.076,17.857-8.179c38.444,33.077,78.178,57.585,101.602,67.623
	c22.32,9.566,46.933,13.098,70.814,7.905c6.701-1.457,13.26-3.545,19.595-6.17c42.558-17.629,71.64-58.702,84.663-91.262
	C518.766,334.059,509.714,296.632,480.112,252.194z M262.239,263.902l7.322-30.51l30.51-7.322L262.239,263.902z M281.95,181.777
	l16.693-69.557L327.4,83.463l2.927,14.635c0.598,2.988,2.934,5.324,5.921,5.92l23.529,4.706l4.707,23.53
	c0.598,2.988,2.934,5.324,5.921,5.92l14.634,2.926l-20.595,20.594c-0.116,0.116-0.218,0.239-0.325,0.36L281.95,181.777z
	 M394.427,127.585l-16.129-3.225l-4.707-23.529c-0.598-2.988-2.934-5.324-5.921-5.92l-23.529-4.706l-3.226-16.129l66.889-13.378
	L394.427,127.585z M282.797,76.912c4.53,1.086,7.41,5.776,6.32,10.314l-23.64,98.506l-18.67,4.48l25.675-106.979
	C273.583,78.646,278.207,75.811,282.797,76.912z M212.392,198.471l22.248-22.248l-4.306,17.942L212.392,198.471z M202.587,110.666
	c17.152-11.875,34.306-17.979,52.245-18.576l-13.45,56.042l-57.001,57.001c-0.024,0.024-0.044,0.051-0.068,0.076l-44.42,10.661
	C138.231,176.007,159.284,140.644,202.587,110.666z M115.347,250.667c-4.642-4.642-2.292-12.832,4.064-14.358l284.639-68.313
	c4.537-1.089,9.227,1.792,10.313,6.322c1.088,4.539-1.79,9.226-6.321,10.314l-284.638,68.313
	C120.483,253.647,117.475,252.794,115.347,250.667z M75.86,450.28l-57.639-57.64l130.169-130.169l69.558-16.694l-19.71,82.124
	L75.86,450.28z M210.49,378.185c-4.54-1.089-7.411-5.776-6.321-10.314l30.251-126.046l18.668-4.48l-32.284,134.517
	C219.704,376.449,215.08,379.285,210.49,378.185z"/>
<circle cx="361.278" cy="420.512" r="7.548"/>
<circle cx="345.177" cy="314.846" r="7.548"/>
<circle cx="354.234" cy="251.446" r="7.548"/>
<circle cx="402.538" cy="307.802" r="7.548"/>
<circle cx="449.837" cy="347.049" r="7.548"/>
<circle cx="433.735" cy="396.36" r="7.548"/>
<circle cx="386.437" cy="372.208" r="7.548"/>
<circle cx="281.777" cy="291.7" r="7.548"/>
<circle cx="273.726" cy="340.005" r="7.548"/>
<circle cx="329.075" cy="371.202" r="7.548"/>
<g>
</g>
<g>
</g>
<g>
</g>
<g>
</g>
<g>
</g>
<g>
</g>
<g>
</g>
<g>
</g>
<g>
</g>
<g>
</g>
<g>
</g>
<g>
</g>
<g>
</g>
<g>
</g>
<g>
</g>
</svg>
